<?xml version="1.0" encoding="iso-8859-1"?>
<!-- Generator: Adobe Illustrator 19.0.0, SVG Export Plug-In . SVG Version: 6.00 Build 0)  -->
<svg version="1.1" id="Capa_1" xmlns="http://www.w3.org/2000/svg" xmlns:xlink="http://www.w3.org/1999/xlink" x="0px" y="0px"
	 viewBox="0 0 511.921 511.921" style="enable-background:new 0 0 511.921 511.921;" xml:space="preserve">
<g>
	<g>
		<path d="M439.932,279.956H71.989c-2.211,0-3.999,1.789-3.999,4v15.998c0,2.209,1.788,3.998,3.999,3.998h367.944
			c2.21,0,3.999-1.789,3.998-3.998v-15.998C443.931,281.745,442.142,279.956,439.932,279.956z M435.933,295.954H75.988v-8h359.945
			V295.954z"/>
	</g>
</g>
<g>
	<g>
		<path d="M79.988,303.952c-2.211,0-4,1.789-4,4v199.969c0,2.211,1.789,4,4,4c2.21,0,3.999-1.789,3.999-4V307.952
			C83.987,305.741,82.198,303.952,79.988,303.952z"/>
	</g>
</g>
<g>
	<g>
		<path d="M95.985,303.952c-2.21,0-3.999,1.789-3.999,4v199.969c0,2.211,1.789,4,3.999,4c2.211,0,4-1.789,4-4V307.952
			C99.985,305.741,98.196,303.952,95.985,303.952z"/>
	</g>
</g>
<g>
	<g>
		<path d="M95.985,503.921H79.988c-2.211,0-4,1.789-4,4s1.789,4,4,4h15.997c2.211,0,4-1.789,4-4S98.196,503.921,95.985,503.921z"/>
	</g>
</g>
<g>
	<g>
		<path d="M415.936,303.952c-2.21,0-3.999,1.789-3.999,4v199.969c0,2.211,1.789,4,3.999,4c2.211,0,4-1.789,4-4V307.952
			C419.936,305.741,418.147,303.952,415.936,303.952z"/>
	</g>
</g>
<g>
	<g>
		<path d="M431.934,303.952c-2.211,0-3.999,1.789-3.999,4v199.969c0,2.211,1.788,4,3.999,4s4-1.789,4-4V307.952
			C435.934,305.741,434.145,303.952,431.934,303.952z"/>
	</g>
</g>
<g>
	<g>
		<path d="M431.934,503.921h-15.998c-2.21,0-3.999,1.789-3.999,4s1.789,4,3.999,4h15.998c2.211,0,4-1.789,4-4
			S434.145,503.921,431.934,503.921z"/>
	</g>
</g>
<g>
	<g>
		<path d="M407.937,335.948H103.984c-2.211,0-3.999,1.789-3.999,3.998c0,2.211,1.788,4,3.999,4h303.954c2.211,0,3.999-1.789,3.998-4
			C411.936,337.737,410.148,335.948,407.937,335.948z"/>
	</g>
</g>
<g>
	<g>
		<path d="M255.961,0c-46.309,0-83.987,37.677-83.987,83.987c0,2.21,1.789,3.999,4,3.999c2.21,0,3.999-1.789,3.999-3.999
			c0-41.9,34.089-75.988,75.988-75.988c41.899,0,75.988,34.088,75.988,75.988c0,2.21,1.789,3.999,3.999,3.999
			c2.211,0,3.999-1.789,3.999-3.999C339.947,37.678,302.273,0,255.961,0z"/>
	</g>
</g>
<g>
	<g>
		<path d="M175.974,79.987c-2.211,0-4,1.789-4,4v191.969c0,2.211,1.789,4,4,4c2.21,0,3.999-1.789,3.999-4V83.987
			C179.973,81.776,178.184,79.987,175.974,79.987z"/>
	</g>
</g>
<g>
	<g>
		<path d="M167.974,71.989c-37.49,0-67.989,30.499-67.989,67.989c0,2.211,1.788,3.999,3.999,3.999s3.999-1.788,3.999-3.998
			c0-33.081,26.91-59.991,59.991-59.991c2.211,0,3.999-1.789,3.999-4C171.973,73.778,170.185,71.989,167.974,71.989z"/>
	</g>
</g>
<g>
	<g>
		<path d="M103.984,135.978c-2.211,0-3.999,1.789-3.999,4v135.978c0,2.211,1.788,4,3.999,4s3.999-1.789,3.999-4V139.978
			C107.983,137.767,106.195,135.978,103.984,135.978z"/>
	</g>
</g>
<g>
	<g>
		<path d="M343.948,71.988c-2.211,0-4,1.789-4,3.999c0,2.211,1.789,4,4,4c33.081,0,59.99,26.91,59.99,59.991
			c0,2.211,1.789,3.999,4,3.999s3.999-1.788,3.999-4C411.937,102.487,381.434,71.988,343.948,71.988z"/>
	</g>
</g>
<g>
	<g>
		<path d="M407.938,135.978c-2.211,0-4,1.789-4,4v135.978c0,2.211,1.789,4,4,4s3.999-1.789,3.999-4V139.978
			C411.937,137.767,410.149,135.978,407.938,135.978z"/>
	</g>
</g>
<g>
	<g>
		<path d="M335.948,79.987c-2.21,0-3.999,1.789-3.999,4v191.969c0,2.211,1.789,4,3.999,4c2.211,0,3.999-1.789,3.999-4V83.987
			C339.947,81.776,338.159,79.987,335.948,79.987z"/>
	</g>
</g>
<g>
	<g>
		<path d="M306.765,113.178c-1.562-1.562-4.093-1.562-5.655,0l-95.95,95.938c-1.562,1.562-1.562,4.093,0,5.655
			c0.781,0.781,1.805,1.172,2.828,1.172c1.023,0,2.046-0.391,2.827-1.172l95.95-95.938
			C308.327,117.271,308.327,114.74,306.765,113.178z"/>
	</g>
</g>
<g>
	<g>
		<path d="M290.767,169.153c-1.561-1.562-4.093-1.562-5.655,0l-23.996,23.981c-1.562,1.558-1.562,4.094,0,5.656
			c0.781,0.78,1.805,1.171,2.828,1.171s2.046-0.391,2.827-1.171l23.996-23.981C292.329,173.251,292.329,170.715,290.767,169.153z"/>
	</g>
</g>
<g>
	<g>
		<path d="M250.782,129.16c-1.562-1.562-4.093-1.562-5.655,0l-23.996,23.996c-1.562,1.562-1.562,4.093,0,5.655
			c0.78,0.781,1.804,1.172,2.827,1.172c1.024,0,2.047-0.391,2.828-1.172l23.996-23.996
			C252.344,133.253,252.344,130.722,250.782,129.16z"/>
	</g>
</g>
<g>
	<g>
		<path d="M279.957,319.95h-47.992c-2.211,0-4,1.789-4,4c0,2.209,1.789,3.998,4,3.998h47.992c2.211,0,4-1.789,4-3.998
			C283.957,321.739,282.168,319.95,279.957,319.95z"/>
	</g>
</g>
<g>
	<g>
		<path d="M231.965,311.952c-2.211,0-4,1.787-4,3.998v8c0,2.209,1.789,3.998,4,3.998c2.21,0,3.999-1.789,3.999-3.998v-8
			C235.964,313.739,234.175,311.952,231.965,311.952z"/>
	</g>
</g>
<g>
	<g>
		<path d="M279.957,311.952c-2.211,0-3.999,1.787-3.999,3.998v8c0,2.209,1.788,3.998,3.999,3.998s4-1.789,4-3.998v-8
			C283.957,313.739,282.168,311.952,279.957,311.952z"/>
	</g>
</g>
<g>
	<g>
		<path d="M175.974,343.946c-2.211,0-4,1.789-4,4v159.975c0,2.211,1.789,4,4,4c2.21,0,3.999-1.789,3.999-4V347.946
			C179.973,345.735,178.184,343.946,175.974,343.946z"/>
	</g>
</g>
<g>
	<g>
		<path d="M167.975,391.939h-63.99c-2.211,0-3.999,1.789-3.999,4s1.788,4,3.999,4h63.99c2.211,0,3.999-1.789,3.999-4
			S170.186,391.939,167.975,391.939z"/>
	</g>
</g>
<g>
	<g>
		<path d="M167.975,447.931h-63.99c-2.211,0-3.999,1.789-3.999,4c0,2.209,1.788,3.998,3.999,3.998h63.99
			c2.211,0,3.999-1.789,3.999-3.998C171.974,449.72,170.186,447.931,167.975,447.931z"/>
	</g>
</g>
<g>
	<g>
		<path d="M143.979,423.935h-15.998c-2.21,0-3.999,1.789-3.999,3.998c0,2.211,1.789,4,3.999,4h15.998c2.21,0,3.999-1.789,3.999-4
			C147.978,425.724,146.189,423.935,143.979,423.935z"/>
	</g>
</g>
<g>
	<g>
		<path d="M143.979,415.935c-2.211,0-4,1.789-4,4v7.998c0,2.211,1.789,4,4,4c2.21,0,3.999-1.789,3.999-4v-7.998
			C147.978,417.724,146.189,415.935,143.979,415.935z"/>
	</g>
</g>
<g>
	<g>
		<path d="M127.981,415.935c-2.21,0-3.999,1.789-3.999,4v7.998c0,2.211,1.789,4,3.999,4c2.21,0,4-1.789,4-4v-7.998
			C131.981,417.724,130.192,415.935,127.981,415.935z"/>
	</g>
</g>
<g>
	<g>
		<path d="M143.979,479.925h-15.998c-2.21,0-3.999,1.789-3.999,4s1.789,4,3.999,4h15.998c2.21,0,3.999-1.789,3.999-4
			S146.189,479.925,143.979,479.925z"/>
	</g>
</g>
<g>
	<g>
		<path d="M143.979,471.927c-2.211,0-4,1.789-4,4v7.998c0,2.211,1.789,4,4,4c2.21,0,3.999-1.789,3.999-4v-7.998
			C147.978,473.716,146.189,471.927,143.979,471.927z"/>
	</g>
</g>
<g>
	<g>
		<path d="M127.981,471.927c-2.21,0-3.999,1.789-3.999,4v7.998c0,2.211,1.789,4,3.999,4c2.21,0,4-1.789,4-4v-7.998
			C131.981,473.716,130.192,471.927,127.981,471.927z"/>
	</g>
</g>
<g>
	<g>
		<path d="M143.979,367.942h-15.998c-2.21,0-3.999,1.789-3.999,4s1.789,4,3.999,4h15.998c2.21,0,3.999-1.789,3.999-4
			S146.189,367.942,143.979,367.942z"/>
	</g>
</g>
<g>
	<g>
		<path d="M143.979,359.944c-2.211,0-4,1.789-4,3.998v8c0,2.211,1.789,4,4,4c2.21,0,3.999-1.789,3.999-4v-8
			C147.978,361.733,146.189,359.944,143.979,359.944z"/>
	</g>
</g>
<g>
	<g>
		<path d="M127.981,359.944c-2.21,0-3.999,1.789-3.999,3.998v8c0,2.211,1.789,4,3.999,4c2.21,0,4-1.789,4-4v-8
			C131.981,361.733,130.192,359.944,127.981,359.944z"/>
	</g>
</g>
<g>
	<g>
		<path d="M167.975,503.921h-63.99c-2.211,0-3.999,1.789-3.999,4s1.788,4,3.999,4h63.99c2.211,0,3.999-1.789,3.999-4
			S170.186,503.921,167.975,503.921z"/>
	</g>
</g>
<g>
	<g>
		<path d="M335.948,343.946c-2.21,0-3.999,1.789-3.999,4v159.975c0,2.211,1.789,4,3.999,4c2.211,0,3.999-1.789,3.999-4V347.946
			C339.947,345.735,338.159,343.946,335.948,343.946z"/>
	</g>
</g>
<g>
	<g>
		<path d="M407.938,391.939h-63.99c-2.211,0-4,1.789-4,4s1.789,4,4,4h63.99c2.211,0,3.999-1.789,3.999-4
			S410.149,391.939,407.938,391.939z"/>
	</g>
</g>
<g>
	<g>
		<path d="M407.938,447.931h-63.99c-2.211,0-4,1.789-4,4c0,2.209,1.789,3.998,4,3.998h63.99c2.211,0,3.999-1.789,3.999-3.998
			C411.937,449.72,410.149,447.931,407.938,447.931z"/>
	</g>
</g>
<g>
	<g>
		<path d="M383.941,423.935h-15.998c-2.211,0-3.999,1.789-3.999,3.998c0,2.211,1.788,4,3.999,4h15.998c2.21,0,3.999-1.789,3.999-4
			C387.94,425.724,386.151,423.935,383.941,423.935z"/>
	</g>
</g>
<g>
	<g>
		<path d="M367.943,415.935c-2.211,0-3.999,1.789-3.999,4v7.998c0,2.211,1.788,4,3.999,4s4-1.789,4-4v-7.998
			C371.943,417.724,370.154,415.935,367.943,415.935z"/>
	</g>
</g>
<g>
	<g>
		<path d="M383.941,415.935c-2.211,0-4,1.789-4,4v7.998c0,2.211,1.789,4,4,4c2.21,0,3.999-1.789,3.999-4v-7.998
			C387.94,417.724,386.151,415.935,383.941,415.935z"/>
	</g>
</g>
<g>
	<g>
		<path d="M383.941,479.925h-15.998c-2.211,0-3.999,1.789-3.999,4s1.788,4,3.999,4h15.998c2.21,0,3.999-1.789,3.999-4
			S386.151,479.925,383.941,479.925z"/>
	</g>
</g>
<g>
	<g>
		<path d="M367.943,471.927c-2.211,0-3.999,1.789-3.999,4v7.998c0,2.211,1.788,4,3.999,4s4-1.789,4-4v-7.998
			C371.943,473.716,370.154,471.927,367.943,471.927z"/>
	</g>
</g>
<g>
	<g>
		<path d="M383.941,471.927c-2.211,0-4,1.789-4,4v7.998c0,2.211,1.789,4,4,4c2.21,0,3.999-1.789,3.999-4v-7.998
			C387.94,473.716,386.151,471.927,383.941,471.927z"/>
	</g>
</g>
<g>
	<g>
		<path d="M383.941,367.942h-15.998c-2.211,0-3.999,1.789-3.999,4s1.788,4,3.999,4h15.998c2.21,0,3.999-1.789,3.999-4
			S386.151,367.942,383.941,367.942z"/>
	</g>
</g>
<g>
	<g>
		<path d="M367.943,359.944c-2.211,0-3.999,1.789-3.999,3.998v8c0,2.211,1.788,4,3.999,4s4-1.789,4-4v-8
			C371.943,361.733,370.154,359.944,367.943,359.944z"/>
	</g>
</g>
<g>
	<g>
		<path d="M383.941,359.944c-2.211,0-4,1.789-4,3.998v8c0,2.211,1.789,4,4,4c2.21,0,3.999-1.789,3.999-4v-8
			C387.94,361.733,386.151,359.944,383.941,359.944z"/>
	</g>
</g>
<g>
	<g>
		<path d="M407.938,503.921h-63.99c-2.211,0-4,1.789-4,4s1.789,4,4,4h63.99c2.211,0,3.999-1.789,3.999-4
			S410.149,503.921,407.938,503.921z"/>
	</g>
</g>
<g>
</g>
<g>
</g>
<g>
</g>
<g>
</g>
<g>
</g>
<g>
</g>
<g>
</g>
<g>
</g>
<g>
</g>
<g>
</g>
<g>
</g>
<g>
</g>
<g>
</g>
<g>
</g>
<g>
</g>
</svg>
