<?xml version="1.0" encoding="iso-8859-1"?>
<!-- Generator: Adobe Illustrator 19.0.0, SVG Export Plug-In . SVG Version: 6.00 Build 0)  -->
<svg version="1.1" id="Capa_1" xmlns="http://www.w3.org/2000/svg" xmlns:xlink="http://www.w3.org/1999/xlink" x="0px" y="0px"
	 viewBox="0 0 480 480" style="enable-background:new 0 0 480 480;" xml:space="preserve">
<g>
	<g>
		<g>
			<path d="M120,176c-17.673,0-32,14.327-32,32s14.327,32,32,32s32-14.327,32-32S137.673,176,120,176z M120,224
				c-8.837,0-16-7.163-16-16s7.163-16,16-16s16,7.163,16,16S128.837,224,120,224z"/>
			<path d="M200,176c-17.673,0-32,14.327-32,32s14.327,32,32,32s32-14.327,32-32S217.673,176,200,176z M200,224
				c-8.837,0-16-7.163-16-16s7.163-16,16-16s16,7.163,16,16S208.837,224,200,224z"/>
			<path d="M280,176c-17.673,0-32,14.327-32,32s14.327,32,32,32c17.673,0,32-14.327,32-32S297.673,176,280,176z M280,224
				c-8.837,0-16-7.163-16-16s7.163-16,16-16s16,7.163,16,16S288.837,224,280,224z"/>
			<path d="M360,176c-17.673,0-32,14.327-32,32s14.327,32,32,32c17.673,0,32-14.327,32-32S377.673,176,360,176z M360,224
				c-8.837,0-16-7.163-16-16s7.163-16,16-16s16,7.163,16,16S368.837,224,360,224z"/>
			<path d="M392,80h80V32H280v56c0.029,8.684,2.914,17.117,8.208,24H272c-13.255,0-24,10.745-24,24v8h-16v-8
				c0-13.255-10.745-24-24-24h-8V48h16V32h-48V8c0-4.418-3.582-8-8-8h-32c-4.418,0-8,3.582-8,8v24H72v16h16v64h-8
				c-13.255,0-24,10.745-24,24v8H8v336h408h56V144h-48v-8c0-13.255-10.745-24-24-24h-16.208c5.294-6.883,8.179-15.316,8.208-24V80z
				 M424,48h32v16h-32V48z M392,48h16v16h-16V48z M296,48h80v40c0,13.255-10.745,24-24,24h-32c-13.255,0-24-10.745-24-24V48z
				 M136,16h16v16h-16V16z M104,48h80v24h-80V48z M104,88h80v24h-80V88z M72,136c0-4.418,3.582-8,8-8h128c4.418,0,8,3.582,8,8v8H72
				V136z M72,160h336v96H72V160z M408,464H80V304h328V464z M424,264V160h32v304h-32V296c0-4.418-3.582-8-8-8H72
				c-4.418,0-8,3.582-8,8v168H24V160h32v104c0,4.418,3.582,8,8,8h352C420.418,272,424,268.418,424,264z M400,128
				c4.418,0,8,3.582,8,8v8H264v-8c0-4.418,3.582-8,8-8H400z"/>
			<rect x="128" y="320" width="224" height="16"/>
			<rect x="168" y="384" width="16" height="16"/>
			<rect x="168" y="432" width="16" height="16"/>
			<rect x="232" y="384" width="16" height="16"/>
			<rect x="232" y="432" width="16" height="16"/>
			<rect x="296" y="384" width="16" height="16"/>
			<rect x="296" y="432" width="16" height="16"/>
			<rect x="200" y="408" width="16" height="16"/>
			<rect x="264" y="408" width="16" height="16"/>
			<rect x="296" width="16" height="16"/>
			<rect x="328" width="16" height="16"/>
			<rect x="360" width="16" height="16"/>
		</g>
	</g>
</g>
<g>
</g>
<g>
</g>
<g>
</g>
<g>
</g>
<g>
</g>
<g>
</g>
<g>
</g>
<g>
</g>
<g>
</g>
<g>
</g>
<g>
</g>
<g>
</g>
<g>
</g>
<g>
</g>
<g>
</g>
</svg>
