<?xml version="1.0" encoding="iso-8859-1"?>
<!-- Generator: Adobe Illustrator 19.0.0, SVG Export Plug-In . SVG Version: 6.00 Build 0)  -->
<svg version="1.1" id="Capa_1" xmlns="http://www.w3.org/2000/svg" xmlns:xlink="http://www.w3.org/1999/xlink" x="0px" y="0px"
	 viewBox="0 0 512 512" style="enable-background:new 0 0 512 512;" xml:space="preserve">
<circle style="fill:#00BAFF;" cx="256" cy="256" r="256"/>
<path style="fill:#008CC3;" d="M511.66,269.29l-95.101-95.101l-290.225-12.522l-16.048,33.869l86.968,86.968L86.5,361.625
	l149.611,149.611C242.675,511.741,249.307,512,256,512C392.927,512,504.745,404.498,511.66,269.29z"/>
<rect x="86.5" y="299.11" style="fill:#91DD19;" width="339" height="62.52"/>
<rect x="256" y="299.11" style="fill:#81AA1D;" width="169.5" height="62.52"/>
<polygon style="fill:#FFFFFF;" points="391.73,361.625 120.27,361.625 120.27,175.099 256,80.716 391.73,175.099 "/>
<polygon style="fill:#E0E0E0;" points="391.73,175.099 256,80.716 256,361.625 391.73,361.625 "/>
<rect x="223.64" y="268.36" style="fill:#8C6239;" width="64.728" height="93.26"/>
<g>
	<rect x="256" y="268.36" style="fill:#754C24;" width="32.364" height="93.26"/>
	<path style="fill:#754C24;" d="M401.715,195.535l14.844-21.347L256,62.541L95.441,174.188l14.844,21.347l87.492-60.84v89.824
		H120.27v20h271.46v-20h-77.508v-89.824L401.715,195.535z M217.777,224.52v-34.576h76.445v34.576H217.777z M294.223,169.944h-76.445
		v-49.156L256,94.208l38.223,26.579V169.944z"/>
</g>
<polygon style="fill:#603813;" points="401.715,195.535 416.559,174.188 256,62.541 256,94.208 294.223,120.788 294.223,169.944 
	256,169.944 256,189.944 294.223,189.944 294.223,224.52 256,224.52 256,244.52 391.73,244.52 391.73,224.52 314.223,224.52 
	314.223,134.695 "/>
<rect x="243" y="118.04" style="fill:#754C24;" width="26" height="38.758"/>
<rect x="256" y="118.04" style="fill:#603813;" width="13" height="38.758"/>
<path style="fill:#754C24;" d="M206.945,333.065h-67.919v-67.919h67.919V333.065z M155.026,317.065h35.919v-35.919h-35.919V317.065z
	"/>
<path style="fill:#603813;" d="M372.974,333.065h-67.919v-67.919h67.919V333.065z M321.055,317.065h35.919v-35.919h-35.919V317.065z
	"/>
<g>
</g>
<g>
</g>
<g>
</g>
<g>
</g>
<g>
</g>
<g>
</g>
<g>
</g>
<g>
</g>
<g>
</g>
<g>
</g>
<g>
</g>
<g>
</g>
<g>
</g>
<g>
</g>
<g>
</g>
</svg>
